# Blender v2.79 (sub 0) OBJ File: ''
# www.blender.org
mtllib MShipScaled.mtl
o Cube_Cube.001
v -0.391926 0.678103 0.000000
v -0.363830 0.649980 -0.070896
v -0.363830 0.173186 -0.070896
v -0.391926 0.145063 0.000000
v -0.125662 0.124079 -0.090232
v -0.395912 0.077200 -0.156032
v -0.119054 0.008322 -0.192905
v 0.112506 0.748194 -0.109569
v 0.140602 0.787902 0.000000
v 0.140602 0.035263 0.000000
v 0.112506 0.074972 -0.109569
v -0.125662 0.733002 0.000000
v -0.125662 0.090163 0.000000
v -0.125662 0.699087 -0.090232
v -0.354364 0.201510 -0.347411
v -0.127612 0.158237 -0.423705
v 0.157804 0.883723 -0.229777
v -0.119054 0.939444 -0.223688
v -0.395912 0.745965 -0.156031
v 0.157804 -0.060556 -0.229778
v -0.127612 0.789528 -0.454489
v 0.099139 0.708201 -0.500000
v 0.099139 0.114965 -0.500000
v 0.434074 0.698136 -0.149702
v 0.398469 0.591608 -0.313707
v -0.354364 0.621656 -0.347411
v -0.359895 0.257444 -0.321932
v -0.359895 0.565722 -0.321932
v 0.434074 0.125029 -0.149702
v 0.604088 0.299644 -0.034316
v 0.604088 0.523522 -0.034316
v 0.398469 0.231558 -0.313707
v 0.590179 0.341258 -0.098383
v 0.590179 0.481908 -0.098383
v -0.390380 0.166233 -0.181510
v -0.390380 0.656932 -0.181510
v -0.343395 0.656932 -0.171835
v -0.343395 0.166233 -0.171835
v -0.312910 0.565722 -0.312258
v -0.312910 0.257444 -0.312258
v -0.363830 0.173186 0.070896
v -0.363830 0.649980 0.070896
v -0.125662 0.124079 0.090232
v -0.119054 0.008322 0.192905
v -0.395912 0.077200 0.156032
v -0.125662 0.699087 0.090233
v 0.112506 0.748194 0.109569
v -0.127612 0.158237 0.423705
v -0.354364 0.201510 0.347411
v -0.119054 0.939443 0.223688
v 0.157804 0.883722 0.229778
v -0.395912 0.745965 0.156032
v 0.157804 -0.060556 0.229778
v 0.112506 0.074972 0.109569
v -0.127612 0.789528 0.454489
v 0.099139 0.114964 0.500000
v 0.099139 0.708201 0.500000
v 0.398469 0.591608 0.313707
v 0.434074 0.698136 0.149702
v -0.354364 0.621656 0.347411
v -0.359895 0.565722 0.321932
v -0.359895 0.257444 0.321932
v 0.604088 0.523522 0.034316
v 0.604088 0.299644 0.034316
v 0.434074 0.125029 0.149702
v 0.398469 0.231558 0.313707
v 0.590179 0.481908 0.098383
v 0.590179 0.341258 0.098383
v -0.390380 0.166233 0.181510
v -0.343395 0.166233 0.171835
v -0.343395 0.656932 0.171835
v -0.390380 0.656932 0.181510
v -0.312910 0.257444 0.312258
v -0.312910 0.565722 0.312258
vt 0.310840 0.606001
vt 0.313684 0.607200
vt 0.313813 0.612355
vt 0.310840 0.613440
vt 0.319048 0.617857
vt 0.316066 0.611674
vt 0.320067 0.614480
vt 0.739105 0.659826
vt 0.744949 0.656292
vt 0.744683 0.671461
vt 0.739537 0.667362
vt 0.106743 0.662489
vt 0.000121 0.655142
vt 0.000121 0.583800
vt 0.106743 0.576452
vt 0.317887 0.622400
vt 0.327185 0.614655
vt 0.332331 0.618754
vt 0.709811 0.575793
vt 0.712316 0.595842
vt 0.685589 0.616688
vt 0.673390 0.611545
vt 0.318441 0.610881
vt 0.320387 0.611087
vt 0.319915 0.602340
vt 0.326753 0.607120
vt 0.323464 0.608588
vt 0.320596 0.606737
vt 0.316382 0.608495
vt 0.323594 0.612228
vt 0.320551 0.609555
vt 0.321751 0.609935
vt 0.321819 0.610552
vt 0.322713 0.610219
vt 0.322516 0.610171
vt 0.318604 0.609528
vt 0.318226 0.610733
vt 0.318309 0.609649
vt 0.322674 0.610338
vt 0.322674 0.610338
vt 0.322674 0.610338
vt 0.322491 0.610341
vt 0.322674 0.610338
vt 0.322674 0.610338
vt 0.316508 0.611186
vt 0.316671 0.608963
vt 0.317175 0.609574
vt 0.316951 0.610550
vt 0.317940 0.609908
vt 0.317818 0.610453
vt 0.766709 0.601181
vt 0.741646 0.616341
vt 0.213365 0.669837
vt 0.213365 0.569105
vt 0.332607 0.613939
vt 0.332737 0.606501
vt 0.335691 0.607638
vt 0.335471 0.612790
vt 0.341022 0.602229
vt 0.341981 0.605623
vt 0.337932 0.608358
vt 0.859877 0.657585
vt 0.802544 0.681974
vt 0.805399 0.661972
vt 0.835083 0.641989
vt 0.342242 0.609021
vt 0.340292 0.609193
vt 0.341617 0.617758
vt 0.342375 0.613373
vt 0.345275 0.611573
vt 0.348537 0.613099
vt 0.338192 0.611543
vt 0.345468 0.607937
vt 0.349101 0.605572
vt 0.342379 0.610555
vt 0.343664 0.609580
vt 0.343586 0.610197
vt 0.344355 0.609974
vt 0.344553 0.609929
vt 0.340432 0.610548
vt 0.340139 0.610422
vt 0.340075 0.609337
vt 0.344517 0.609858
vt 0.344517 0.609858
vt 0.344515 0.609809
vt 0.344333 0.609804
vt 0.344517 0.609858
vt 0.344517 0.609858
vt 0.338365 0.608854
vt 0.338797 0.609498
vt 0.339004 0.610477
vt 0.338489 0.611079
vt 0.339662 0.609610
vt 0.339775 0.610157
vt 0.339941 0.597666
vt 0.354318 0.601564
vt 0.766754 0.645589
vt 0.779041 0.640661
vt 0.760890 0.665806
vt 0.761453 0.658279
vt 0.766670 0.654270
vt 0.766670 0.669442
vn -0.9297 0.0000 -0.3684
vn -0.0716 -0.6669 0.7417
vn -0.0687 -0.6574 0.7504
vn -0.0697 -0.6610 0.7471
vn 0.9687 0.0000 -0.2484
vn 0.0000 -0.0000 1.0000
vn -0.2033 -0.9277 -0.3132
vn -0.2006 0.9020 -0.3823
vn -0.2965 -0.7902 -0.5364
vn 0.0481 0.5542 0.8310
vn -0.9358 -0.0000 0.3526
vn 0.9358 -0.0000 0.3526
vn -0.2655 -0.0242 -0.9638
vn 0.1656 0.8167 -0.5527
vn 0.5733 0.6247 -0.5302
vn -0.9772 -0.0000 -0.2122
vn -0.5616 -0.0000 0.8274
vn 0.5284 0.0000 -0.8490
vn -0.2784 -0.0000 0.9605
vn 0.5733 -0.6247 -0.5302
vn 0.9772 0.0000 -0.2122
vn 0.7691 0.4467 -0.4571
vn 0.7469 0.0000 -0.6650
vn 0.7691 -0.4467 -0.4571
vn 0.2017 0.0000 -0.9795
vn -0.1081 -0.8443 0.5249
vn -0.2017 -0.0000 0.9795
vn -0.1081 0.8443 0.5249
vn -0.6173 0.6369 -0.4619
vn -0.3683 -0.0272 -0.9293
vn -0.1109 0.5357 0.8371
vn -0.2932 -0.8193 -0.4928
vn -0.2033 0.9277 -0.3132
vn -0.2006 -0.9020 -0.3823
vn -0.0729 -0.6702 0.7386
vn -0.9297 -0.0000 0.3684
vn -0.0716 -0.6669 -0.7417
vn -0.0697 -0.6610 -0.7471
vn -0.0687 -0.6574 -0.7504
vn -0.2033 0.9277 0.3132
vn -0.2965 -0.7902 0.5364
vn 0.0481 0.5542 -0.8310
vn -0.9358 0.0000 -0.3526
vn 0.9358 0.0000 -0.3526
vn -0.2655 -0.0242 0.9638
vn 0.1656 0.8167 0.5527
vn 0.5733 0.6247 0.5302
vn -0.9772 -0.0000 0.2122
vn -0.5616 0.0000 -0.8274
vn 0.5284 -0.0000 0.8490
vn -0.2784 0.0000 -0.9605
vn 0.5733 -0.6247 0.5302
vn 0.9772 0.0000 0.2122
vn 0.7691 0.4467 0.4571
vn 0.7469 -0.0000 0.6650
vn 0.7691 -0.4467 0.4571
vn 0.2017 -0.0000 0.9795
vn -0.1081 -0.8443 -0.5249
vn -0.2017 0.0000 -0.9795
vn -0.1081 0.8443 -0.5249
vn -0.6173 0.6369 0.4619
vn -0.3683 -0.0272 0.9293
vn -0.1109 0.5357 -0.8371
vn -0.2932 -0.8193 0.4928
vn -0.2006 -0.9020 0.3823
vn -0.2033 -0.9277 0.3132
vn -0.0729 -0.6702 -0.7386
vn -0.2006 0.9020 0.3823
vn 0.9687 -0.0000 0.2484
usemtl Material.001
s 1
f 1/1/1 2/2/1 3/3/1 4/4/1
f 5/5/2 3/3/3 6/6/3 7/7/4
f 8/8/5 9/9/5 10/10/5 11/11/5
f 12/12/6 1/13/6 4/14/6 13/15/6
f 13/16/7 5/5/7 11/17/7 10/18/7
f 12/19/8 14/20/8 2/21/8 1/22/8
f 7/7/9 6/6/9 15/23/9 16/24/9
f 14/25/10 8/26/10 17/27/10 18/28/10
f 3/3/11 2/2/11 19/29/11 6/6/11
f 8/26/12 11/17/12 20/30/12 17/27/12
f 21/31/13 22/32/13 23/33/13 16/24/13
f 18/28/14 17/27/14 22/32/14 21/31/14
f 22/32/15 17/27/15 24/34/15 25/35/15
f 26/36/16 15/23/16 27/37/16 28/38/16
f 24/34/17 29/39/17 30/40/17 31/41/17
f 23/33/18 22/32/18 25/35/18 32/42/18
f 17/27/19 20/30/19 29/39/19 24/34/19
f 20/30/20 23/33/20 32/42/20 29/39/20
f 31/41/21 30/40/21 33/43/21 34/44/21
f 25/35/22 24/34/22 31/41/22 34/44/22
f 32/42/23 25/35/23 34/44/23 33/43/23
f 29/39/24 32/42/24 33/43/24 30/40/24
f 35/45/25 36/46/25 37/47/25 38/48/25
f 19/29/16 26/36/16 28/38/16 36/46/16
f 6/6/16 19/29/16 36/46/16 35/45/16
f 15/23/16 6/6/16 35/45/16 27/37/16
f 38/48/16 37/47/16 39/49/16 40/50/16
f 36/46/26 28/38/26 39/49/26 37/47/26
f 28/38/27 27/37/27 40/50/27 39/49/27
f 27/37/28 35/45/28 38/48/28 40/50/28
f 19/29/29 18/28/29 21/31/29 26/36/29
f 26/36/30 21/31/30 16/24/30 15/23/30
f 2/2/31 14/25/31 18/28/31 19/29/31
f 20/30/32 7/7/32 16/24/32 23/33/32
f 9/51/33 8/52/33 14/20/33 12/19/33
f 4/4/34 3/3/34 5/5/34 13/16/34
f 9/53/6 12/12/6 13/15/6 10/54/6
f 11/17/35 5/5/2 7/7/4 20/30/35
f 1/55/36 4/56/36 41/57/36 42/58/36
f 43/59/37 44/60/38 45/61/39 41/57/39
f 9/62/40 12/63/40 46/64/40 47/65/40
f 44/60/41 48/66/41 49/67/41 45/61/41
f 46/68/42 50/69/42 51/70/42 47/71/42
f 41/57/43 45/61/43 52/72/43 42/58/43
f 47/71/44 51/70/44 53/73/44 54/74/44
f 55/75/45 48/66/45 56/76/45 57/77/45
f 50/69/46 55/75/46 57/77/46 51/70/46
f 57/77/47 58/78/47 59/79/47 51/70/47
f 60/80/48 61/81/48 62/82/48 49/67/48
f 59/79/49 63/83/49 64/84/49 65/85/49
f 56/76/50 66/86/50 58/78/50 57/77/50
f 51/70/51 59/79/51 65/85/51 53/73/51
f 53/73/52 65/85/52 66/86/52 56/76/52
f 63/83/53 67/87/53 68/88/53 64/84/53
f 58/78/54 67/87/54 63/83/54 59/79/54
f 66/86/55 68/88/55 67/87/55 58/78/55
f 65/85/56 64/84/56 68/88/56 66/86/56
f 69/89/57 70/90/57 71/91/57 72/92/57
f 52/72/48 72/92/48 61/81/48 60/80/48
f 45/61/48 69/89/48 72/92/48 52/72/48
f 49/67/48 62/82/48 69/89/48 45/61/48
f 70/90/48 73/93/48 74/94/48 71/91/48
f 72/92/58 71/91/58 74/94/58 61/81/58
f 61/81/59 74/94/59 73/93/59 62/82/59
f 62/82/60 73/93/60 70/90/60 69/89/60
f 52/72/61 60/80/61 55/75/61 50/69/61
f 60/80/62 49/67/62 48/66/62 55/75/62
f 42/58/63 52/72/63 50/69/63 46/68/63
f 53/73/64 56/76/64 48/66/64 44/60/64
f 4/56/65 13/95/65 43/59/65 41/57/65
f 13/95/66 10/96/66 54/74/66 43/59/66
f 54/74/67 53/73/67 44/60/38 43/59/37
f 12/63/68 1/97/68 42/98/68 46/64/68
f 47/99/69 54/100/69 10/101/69 9/102/69
